%TF.GenerationSoftware,KiCad,Pcbnew,(5.99.0-9650-gad505e29c0)*%
%TF.CreationDate,2021-03-21T12:39:57-04:00*%
%TF.ProjectId,NTSCope,4e545343-6f70-4652-9e6b-696361645f70,rev?*%
%TF.SameCoordinates,Original*%
%TF.FileFunction,Profile,NP*%
%FSLAX46Y46*%
G04 Gerber Fmt 4.6, Leading zero omitted, Abs format (unit mm)*
G04 Created by KiCad (PCBNEW (5.99.0-9650-gad505e29c0)) date 2021-03-21 12:39:57*
%MOMM*%
%LPD*%
G01*
G04 APERTURE LIST*
%TA.AperFunction,Profile*%
%ADD10C,0.050000*%
%TD*%
%TA.AperFunction,Profile*%
%ADD11C,0.001000*%
%TD*%
%TA.AperFunction,Profile*%
%ADD12C,0.250000*%
%TD*%
G04 APERTURE END LIST*
D10*
X118872000Y-77216000D02*
X118872000Y-17780000D01*
X171958000Y-77216000D02*
X118872000Y-77216000D01*
X171958000Y-17780000D02*
X171958000Y-77216000D01*
X118872000Y-17780000D02*
X171958000Y-17780000D01*
D11*
%TO.C,J2*%
X170004000Y-20780000D02*
X171704000Y-20780000D01*
X171704000Y-29280000D02*
X171704000Y-27480000D01*
X171704000Y-20780000D02*
X171704000Y-18980000D01*
X170004000Y-29280000D02*
X171704000Y-29280000D01*
X171704000Y-27480000D02*
X170004000Y-27480000D01*
X170004000Y-27480000D02*
X170004000Y-29280000D01*
X170004000Y-18980000D02*
X170004000Y-20780000D01*
X171704000Y-18980000D02*
X170004000Y-18980000D01*
D12*
%TO.C,J3*%
X122131000Y-59439000D02*
X124529000Y-59439000D01*
X124529000Y-21841000D02*
X122131000Y-21841000D01*
X122131000Y-21841000D02*
X122131000Y-19840000D01*
X124529000Y-61440000D02*
X122131000Y-61440000D01*
X122131000Y-19840000D02*
X124529000Y-19840000D01*
X122131000Y-61440000D02*
X122131000Y-59439000D01*
X124529000Y-19840000D02*
X124529000Y-21841000D01*
X124529000Y-59439000D02*
X124529000Y-61440000D01*
%TD*%
M02*
