M48
; DRILL file {KiCad (5.99.0-9650-gad505e29c0)} date 03/21/21 12:40:00
; FORMAT={-:-/ absolute / inch / decimal}
; #@! TF.CreationDate,2021-03-21T12:40:00-04:00
; #@! TF.GenerationSoftware,Kicad,Pcbnew,(5.99.0-9650-gad505e29c0)
; #@! TF.FileFunction,Plated,1,2,PTH
FMAT,2
INCH
; #@! TA.AperFunction,ComponentDrill
T1C0.0315
; #@! TA.AperFunction,ComponentDrill
T2C0.0354
; #@! TA.AperFunction,ComponentDrill
T3C0.0394
; #@! TA.AperFunction,ComponentDrill
T4C0.0512
; #@! TA.AperFunction,ComponentDrill
T5C0.0906
; #@! TA.AperFunction,ComponentDrill
T6C0.0984
; #@! TA.AperFunction,ComponentDrill
T7C0.1181
%
G90
G05
T1
; pad hole
X5.2Y-0.754
X5.2Y-1.154
X5.2Y-2.05
X5.2Y-2.45
X5.3016Y-1.85
X5.35Y-0.75
X5.35Y-1.15
X5.35Y-1.45
X5.35Y-1.55
X5.35Y-1.65
X5.35Y-2.05
X5.35Y-2.45
X5.3994Y-2.747
X5.4Y-1.85
X5.4994Y-2.647
X5.5Y-0.75
X5.5Y-1.15
X5.5Y-2.05
X5.5Y-2.45
X5.55Y-1.45
X5.55Y-1.55
X5.55Y-1.65
X5.5516Y-1.3
X5.5994Y-2.747
X5.64Y-2.05
X5.64Y-2.45
X5.65Y-0.75
X5.65Y-1.15
X5.65Y-1.3
X5.7494Y-2.747
X5.75Y-1.45
X5.75Y-1.55
X5.75Y-1.65
X5.8Y-1.3
X5.8Y-2.05
X5.8Y-2.45
X5.8494Y-2.647
X5.8984Y-1.3
X5.9104Y-0.8004
X5.9104Y-0.9004
X5.9104Y-1.0004
X5.9104Y-1.1004
X5.9494Y-2.747
X5.95Y-1.45
X5.95Y-1.55
X5.95Y-1.65
X5.95Y-2.05
X5.95Y-2.45
X6.0516Y-1.3
X6.1Y-2.05
X6.1Y-2.45
X6.15Y-1.3
X6.15Y-1.45
X6.15Y-1.55
X6.15Y-1.65
X6.2Y-2.65
X6.2Y-2.75
X6.2Y-2.85
X6.2Y-2.95
X6.2104Y-0.8004
X6.2104Y-0.9004
X6.2104Y-1.0004
X6.2104Y-1.1004
X6.25Y-2.05
X6.25Y-2.45
X6.3Y-1.3
X6.35Y-1.45
X6.35Y-1.55
X6.35Y-1.65
X6.3984Y-1.3
X6.4Y-2.05
X6.4Y-2.45
X6.5Y-2.65
X6.5Y-2.75
X6.5Y-2.85
X6.5Y-2.95
X6.55Y-1.3
X6.55Y-2.05
X6.55Y-2.45
X6.6484Y-1.3
X6.7Y-2.05
X6.7Y-2.45
T2
X5.6Y-1.8472
X5.9Y-1.8472
X6.05Y-1.85
X6.35Y-1.85
T3
X5.0012Y-0.8618
X5.0012Y-1.1571
X5.0012Y-1.4524
X5.0012Y-1.7476
X5.0012Y-2.0429
X5.0012Y-2.3382
T4
X4.8555Y-1.0094
X4.8555Y-1.6
X4.8555Y-2.1906
T5
X4.8106Y-2.75
T6
X4.7713Y-2.5728
X4.7713Y-2.9272
T7
X5.0469Y-2.75
T3
; pad hole
G00X6.3998Y-0.95
M15
G01X6.4509Y-0.95
M16
G05
T4
G00X6.6025Y-0.9087
M15
G01X6.6025Y-0.9913
M16
G05
T0
M30
