%TF.GenerationSoftware,KiCad,Pcbnew,(5.99.0-9650-gad505e29c0)*%
%TF.CreationDate,2021-03-21T12:39:57-04:00*%
%TF.ProjectId,NTSCope,4e545343-6f70-4652-9e6b-696361645f70,rev?*%
%TF.SameCoordinates,Original*%
%TF.FileFunction,Soldermask,Bot*%
%TF.FilePolarity,Negative*%
%FSLAX46Y46*%
G04 Gerber Fmt 4.6, Leading zero omitted, Abs format (unit mm)*
G04 Created by KiCad (PCBNEW (5.99.0-9650-gad505e29c0)) date 2021-03-21 12:39:57*
%MOMM*%
%LPD*%
G01*
G04 APERTURE LIST*
%ADD10C,0.002000*%
%ADD11C,1.600000*%
%ADD12R,4.000000X4.000000*%
%ADD13C,3.300000*%
%ADD14C,3.500000*%
%ADD15O,1.600000X1.600000*%
%ADD16C,1.440000*%
%ADD17R,1.800000X1.800000*%
%ADD18O,1.800000X1.800000*%
%ADD19R,1.500000X1.500000*%
%ADD20C,1.500000*%
%ADD21R,1.600000X1.600000*%
%ADD22O,2.100000X4.200000*%
%ADD23O,3.100000X1.550000*%
G04 APERTURE END LIST*
D10*
%TO.C,J3*%
X122228000Y-26890000D02*
X122242000Y-27062000D01*
X122242000Y-27062000D02*
X122282000Y-27230000D01*
X122282000Y-27230000D02*
X122348000Y-27390000D01*
X122348000Y-27390000D02*
X122439000Y-27538000D01*
X122439000Y-27538000D02*
X122551000Y-27669000D01*
X122551000Y-27669000D02*
X122682000Y-27781000D01*
X122682000Y-27781000D02*
X122830000Y-27872000D01*
X122830000Y-27872000D02*
X122990000Y-27938000D01*
X122990000Y-27938000D02*
X123158000Y-27978000D01*
X123158000Y-27978000D02*
X123330000Y-27992000D01*
X123330000Y-27992000D02*
X123502000Y-27978000D01*
X123502000Y-27978000D02*
X123670000Y-27938000D01*
X123670000Y-27938000D02*
X123830000Y-27872000D01*
X123830000Y-27872000D02*
X123978000Y-27781000D01*
X123978000Y-27781000D02*
X124109000Y-27669000D01*
X124109000Y-27669000D02*
X124221000Y-27538000D01*
X124221000Y-27538000D02*
X124312000Y-27390000D01*
X124312000Y-27390000D02*
X124378000Y-27230000D01*
X124378000Y-27230000D02*
X124418000Y-27062000D01*
X124418000Y-27062000D02*
X124432000Y-26890000D01*
X124432000Y-26890000D02*
X124432000Y-24390000D01*
X124432000Y-24390000D02*
X124418000Y-24218000D01*
X124418000Y-24218000D02*
X124378000Y-24050000D01*
X124378000Y-24050000D02*
X124312000Y-23890000D01*
X124312000Y-23890000D02*
X124221000Y-23742000D01*
X124221000Y-23742000D02*
X124109000Y-23611000D01*
X124109000Y-23611000D02*
X123978000Y-23499000D01*
X123978000Y-23499000D02*
X123830000Y-23408000D01*
X123830000Y-23408000D02*
X123670000Y-23342000D01*
X123670000Y-23342000D02*
X123502000Y-23302000D01*
X123502000Y-23302000D02*
X123330000Y-23288000D01*
X123330000Y-23288000D02*
X123158000Y-23302000D01*
X123158000Y-23302000D02*
X122990000Y-23342000D01*
X122990000Y-23342000D02*
X122830000Y-23408000D01*
X122830000Y-23408000D02*
X122682000Y-23499000D01*
X122682000Y-23499000D02*
X122551000Y-23611000D01*
X122551000Y-23611000D02*
X122439000Y-23742000D01*
X122439000Y-23742000D02*
X122348000Y-23890000D01*
X122348000Y-23890000D02*
X122282000Y-24050000D01*
X122282000Y-24050000D02*
X122242000Y-24218000D01*
X122242000Y-24218000D02*
X122228000Y-24390000D01*
X122228000Y-24390000D02*
X122228000Y-26890000D01*
G36*
X123502000Y-23302000D02*
G01*
X123670000Y-23342000D01*
X123830000Y-23408000D01*
X123978000Y-23499000D01*
X124109000Y-23611000D01*
X124221000Y-23742000D01*
X124312000Y-23890000D01*
X124378000Y-24050000D01*
X124418000Y-24218000D01*
X124432000Y-24390000D01*
X124432000Y-26890000D01*
X124418000Y-27062000D01*
X124378000Y-27230000D01*
X124312000Y-27390000D01*
X124221000Y-27538000D01*
X124109000Y-27669000D01*
X123978000Y-27781000D01*
X123830000Y-27872000D01*
X123670000Y-27938000D01*
X123502000Y-27978000D01*
X123330000Y-27992000D01*
X123158000Y-27978000D01*
X122990000Y-27938000D01*
X122830000Y-27872000D01*
X122682000Y-27781000D01*
X122551000Y-27669000D01*
X122439000Y-27538000D01*
X122348000Y-27390000D01*
X122282000Y-27230000D01*
X122242000Y-27062000D01*
X122228000Y-26890000D01*
X122228000Y-24390000D01*
X122242000Y-24218000D01*
X122282000Y-24050000D01*
X122348000Y-23890000D01*
X122439000Y-23742000D01*
X122551000Y-23611000D01*
X122682000Y-23499000D01*
X122830000Y-23408000D01*
X122990000Y-23342000D01*
X123158000Y-23302000D01*
X123330000Y-23288000D01*
X123502000Y-23302000D01*
G37*
X123502000Y-23302000D02*
X123670000Y-23342000D01*
X123830000Y-23408000D01*
X123978000Y-23499000D01*
X124109000Y-23611000D01*
X124221000Y-23742000D01*
X124312000Y-23890000D01*
X124378000Y-24050000D01*
X124418000Y-24218000D01*
X124432000Y-24390000D01*
X124432000Y-26890000D01*
X124418000Y-27062000D01*
X124378000Y-27230000D01*
X124312000Y-27390000D01*
X124221000Y-27538000D01*
X124109000Y-27669000D01*
X123978000Y-27781000D01*
X123830000Y-27872000D01*
X123670000Y-27938000D01*
X123502000Y-27978000D01*
X123330000Y-27992000D01*
X123158000Y-27978000D01*
X122990000Y-27938000D01*
X122830000Y-27872000D01*
X122682000Y-27781000D01*
X122551000Y-27669000D01*
X122439000Y-27538000D01*
X122348000Y-27390000D01*
X122282000Y-27230000D01*
X122242000Y-27062000D01*
X122228000Y-26890000D01*
X122228000Y-24390000D01*
X122242000Y-24218000D01*
X122282000Y-24050000D01*
X122348000Y-23890000D01*
X122439000Y-23742000D01*
X122551000Y-23611000D01*
X122682000Y-23499000D01*
X122830000Y-23408000D01*
X122990000Y-23342000D01*
X123158000Y-23302000D01*
X123330000Y-23288000D01*
X123502000Y-23302000D01*
X125780000Y-20938000D02*
X125631000Y-20950000D01*
X125631000Y-20950000D02*
X125486000Y-20985000D01*
X125486000Y-20985000D02*
X125348000Y-21042000D01*
X125348000Y-21042000D02*
X125221000Y-21120000D01*
X125221000Y-21120000D02*
X125107000Y-21217000D01*
X125107000Y-21217000D02*
X125010000Y-21331000D01*
X125010000Y-21331000D02*
X124932000Y-21458000D01*
X124932000Y-21458000D02*
X124875000Y-21596000D01*
X124875000Y-21596000D02*
X124840000Y-21741000D01*
X124840000Y-21741000D02*
X124828000Y-21890000D01*
X124828000Y-21890000D02*
X124840000Y-22039000D01*
X124840000Y-22039000D02*
X124875000Y-22184000D01*
X124875000Y-22184000D02*
X124932000Y-22322000D01*
X124932000Y-22322000D02*
X125010000Y-22449000D01*
X125010000Y-22449000D02*
X125107000Y-22563000D01*
X125107000Y-22563000D02*
X125221000Y-22660000D01*
X125221000Y-22660000D02*
X125348000Y-22738000D01*
X125348000Y-22738000D02*
X125486000Y-22795000D01*
X125486000Y-22795000D02*
X125631000Y-22830000D01*
X125631000Y-22830000D02*
X125780000Y-22842000D01*
X125780000Y-22842000D02*
X128280000Y-22842000D01*
X128280000Y-22842000D02*
X128429000Y-22830000D01*
X128429000Y-22830000D02*
X128574000Y-22795000D01*
X128574000Y-22795000D02*
X128712000Y-22738000D01*
X128712000Y-22738000D02*
X128839000Y-22660000D01*
X128839000Y-22660000D02*
X128953000Y-22563000D01*
X128953000Y-22563000D02*
X129050000Y-22449000D01*
X129050000Y-22449000D02*
X129128000Y-22322000D01*
X129128000Y-22322000D02*
X129185000Y-22184000D01*
X129185000Y-22184000D02*
X129220000Y-22039000D01*
X129220000Y-22039000D02*
X129232000Y-21890000D01*
X129232000Y-21890000D02*
X129220000Y-21741000D01*
X129220000Y-21741000D02*
X129185000Y-21596000D01*
X129185000Y-21596000D02*
X129128000Y-21458000D01*
X129128000Y-21458000D02*
X129050000Y-21331000D01*
X129050000Y-21331000D02*
X128953000Y-21217000D01*
X128953000Y-21217000D02*
X128839000Y-21120000D01*
X128839000Y-21120000D02*
X128712000Y-21042000D01*
X128712000Y-21042000D02*
X128574000Y-20985000D01*
X128574000Y-20985000D02*
X128429000Y-20950000D01*
X128429000Y-20950000D02*
X128280000Y-20938000D01*
X128280000Y-20938000D02*
X125780000Y-20938000D01*
G36*
X128429000Y-20950000D02*
G01*
X128574000Y-20985000D01*
X128712000Y-21042000D01*
X128839000Y-21120000D01*
X128953000Y-21217000D01*
X129050000Y-21331000D01*
X129128000Y-21458000D01*
X129185000Y-21596000D01*
X129220000Y-21741000D01*
X129232000Y-21890000D01*
X129220000Y-22039000D01*
X129185000Y-22184000D01*
X129128000Y-22322000D01*
X129050000Y-22449000D01*
X128953000Y-22563000D01*
X128839000Y-22660000D01*
X128712000Y-22738000D01*
X128574000Y-22795000D01*
X128429000Y-22830000D01*
X128280000Y-22842000D01*
X125780000Y-22842000D01*
X125631000Y-22830000D01*
X125486000Y-22795000D01*
X125348000Y-22738000D01*
X125221000Y-22660000D01*
X125107000Y-22563000D01*
X125010000Y-22449000D01*
X124932000Y-22322000D01*
X124875000Y-22184000D01*
X124840000Y-22039000D01*
X124828000Y-21890000D01*
X124840000Y-21741000D01*
X124875000Y-21596000D01*
X124932000Y-21458000D01*
X125010000Y-21331000D01*
X125107000Y-21217000D01*
X125221000Y-21120000D01*
X125348000Y-21042000D01*
X125486000Y-20985000D01*
X125631000Y-20950000D01*
X125780000Y-20938000D01*
X128280000Y-20938000D01*
X128429000Y-20950000D01*
G37*
X128429000Y-20950000D02*
X128574000Y-20985000D01*
X128712000Y-21042000D01*
X128839000Y-21120000D01*
X128953000Y-21217000D01*
X129050000Y-21331000D01*
X129128000Y-21458000D01*
X129185000Y-21596000D01*
X129220000Y-21741000D01*
X129232000Y-21890000D01*
X129220000Y-22039000D01*
X129185000Y-22184000D01*
X129128000Y-22322000D01*
X129050000Y-22449000D01*
X128953000Y-22563000D01*
X128839000Y-22660000D01*
X128712000Y-22738000D01*
X128574000Y-22795000D01*
X128429000Y-22830000D01*
X128280000Y-22842000D01*
X125780000Y-22842000D01*
X125631000Y-22830000D01*
X125486000Y-22795000D01*
X125348000Y-22738000D01*
X125221000Y-22660000D01*
X125107000Y-22563000D01*
X125010000Y-22449000D01*
X124932000Y-22322000D01*
X124875000Y-22184000D01*
X124840000Y-22039000D01*
X124828000Y-21890000D01*
X124840000Y-21741000D01*
X124875000Y-21596000D01*
X124932000Y-21458000D01*
X125010000Y-21331000D01*
X125107000Y-21217000D01*
X125221000Y-21120000D01*
X125348000Y-21042000D01*
X125486000Y-20985000D01*
X125631000Y-20950000D01*
X125780000Y-20938000D01*
X128280000Y-20938000D01*
X128429000Y-20950000D01*
X125780000Y-43438000D02*
X125631000Y-43450000D01*
X125631000Y-43450000D02*
X125486000Y-43485000D01*
X125486000Y-43485000D02*
X125348000Y-43542000D01*
X125348000Y-43542000D02*
X125221000Y-43620000D01*
X125221000Y-43620000D02*
X125107000Y-43717000D01*
X125107000Y-43717000D02*
X125010000Y-43831000D01*
X125010000Y-43831000D02*
X124932000Y-43958000D01*
X124932000Y-43958000D02*
X124875000Y-44096000D01*
X124875000Y-44096000D02*
X124840000Y-44241000D01*
X124840000Y-44241000D02*
X124828000Y-44390000D01*
X124828000Y-44390000D02*
X124840000Y-44539000D01*
X124840000Y-44539000D02*
X124875000Y-44684000D01*
X124875000Y-44684000D02*
X124932000Y-44822000D01*
X124932000Y-44822000D02*
X125010000Y-44949000D01*
X125010000Y-44949000D02*
X125107000Y-45063000D01*
X125107000Y-45063000D02*
X125221000Y-45160000D01*
X125221000Y-45160000D02*
X125348000Y-45238000D01*
X125348000Y-45238000D02*
X125486000Y-45295000D01*
X125486000Y-45295000D02*
X125631000Y-45330000D01*
X125631000Y-45330000D02*
X125780000Y-45342000D01*
X125780000Y-45342000D02*
X128280000Y-45342000D01*
X128280000Y-45342000D02*
X128429000Y-45330000D01*
X128429000Y-45330000D02*
X128574000Y-45295000D01*
X128574000Y-45295000D02*
X128712000Y-45238000D01*
X128712000Y-45238000D02*
X128839000Y-45160000D01*
X128839000Y-45160000D02*
X128953000Y-45063000D01*
X128953000Y-45063000D02*
X129050000Y-44949000D01*
X129050000Y-44949000D02*
X129128000Y-44822000D01*
X129128000Y-44822000D02*
X129185000Y-44684000D01*
X129185000Y-44684000D02*
X129220000Y-44539000D01*
X129220000Y-44539000D02*
X129232000Y-44390000D01*
X129232000Y-44390000D02*
X129220000Y-44241000D01*
X129220000Y-44241000D02*
X129185000Y-44096000D01*
X129185000Y-44096000D02*
X129128000Y-43958000D01*
X129128000Y-43958000D02*
X129050000Y-43831000D01*
X129050000Y-43831000D02*
X128953000Y-43717000D01*
X128953000Y-43717000D02*
X128839000Y-43620000D01*
X128839000Y-43620000D02*
X128712000Y-43542000D01*
X128712000Y-43542000D02*
X128574000Y-43485000D01*
X128574000Y-43485000D02*
X128429000Y-43450000D01*
X128429000Y-43450000D02*
X128280000Y-43438000D01*
X128280000Y-43438000D02*
X125780000Y-43438000D01*
G36*
X128429000Y-43450000D02*
G01*
X128574000Y-43485000D01*
X128712000Y-43542000D01*
X128839000Y-43620000D01*
X128953000Y-43717000D01*
X129050000Y-43831000D01*
X129128000Y-43958000D01*
X129185000Y-44096000D01*
X129220000Y-44241000D01*
X129232000Y-44390000D01*
X129220000Y-44539000D01*
X129185000Y-44684000D01*
X129128000Y-44822000D01*
X129050000Y-44949000D01*
X128953000Y-45063000D01*
X128839000Y-45160000D01*
X128712000Y-45238000D01*
X128574000Y-45295000D01*
X128429000Y-45330000D01*
X128280000Y-45342000D01*
X125780000Y-45342000D01*
X125631000Y-45330000D01*
X125486000Y-45295000D01*
X125348000Y-45238000D01*
X125221000Y-45160000D01*
X125107000Y-45063000D01*
X125010000Y-44949000D01*
X124932000Y-44822000D01*
X124875000Y-44684000D01*
X124840000Y-44539000D01*
X124828000Y-44390000D01*
X124840000Y-44241000D01*
X124875000Y-44096000D01*
X124932000Y-43958000D01*
X125010000Y-43831000D01*
X125107000Y-43717000D01*
X125221000Y-43620000D01*
X125348000Y-43542000D01*
X125486000Y-43485000D01*
X125631000Y-43450000D01*
X125780000Y-43438000D01*
X128280000Y-43438000D01*
X128429000Y-43450000D01*
G37*
X128429000Y-43450000D02*
X128574000Y-43485000D01*
X128712000Y-43542000D01*
X128839000Y-43620000D01*
X128953000Y-43717000D01*
X129050000Y-43831000D01*
X129128000Y-43958000D01*
X129185000Y-44096000D01*
X129220000Y-44241000D01*
X129232000Y-44390000D01*
X129220000Y-44539000D01*
X129185000Y-44684000D01*
X129128000Y-44822000D01*
X129050000Y-44949000D01*
X128953000Y-45063000D01*
X128839000Y-45160000D01*
X128712000Y-45238000D01*
X128574000Y-45295000D01*
X128429000Y-45330000D01*
X128280000Y-45342000D01*
X125780000Y-45342000D01*
X125631000Y-45330000D01*
X125486000Y-45295000D01*
X125348000Y-45238000D01*
X125221000Y-45160000D01*
X125107000Y-45063000D01*
X125010000Y-44949000D01*
X124932000Y-44822000D01*
X124875000Y-44684000D01*
X124840000Y-44539000D01*
X124828000Y-44390000D01*
X124840000Y-44241000D01*
X124875000Y-44096000D01*
X124932000Y-43958000D01*
X125010000Y-43831000D01*
X125107000Y-43717000D01*
X125221000Y-43620000D01*
X125348000Y-43542000D01*
X125486000Y-43485000D01*
X125631000Y-43450000D01*
X125780000Y-43438000D01*
X128280000Y-43438000D01*
X128429000Y-43450000D01*
X122228000Y-41890000D02*
X122242000Y-42062000D01*
X122242000Y-42062000D02*
X122282000Y-42230000D01*
X122282000Y-42230000D02*
X122348000Y-42390000D01*
X122348000Y-42390000D02*
X122439000Y-42538000D01*
X122439000Y-42538000D02*
X122551000Y-42669000D01*
X122551000Y-42669000D02*
X122682000Y-42781000D01*
X122682000Y-42781000D02*
X122830000Y-42872000D01*
X122830000Y-42872000D02*
X122990000Y-42938000D01*
X122990000Y-42938000D02*
X123158000Y-42978000D01*
X123158000Y-42978000D02*
X123330000Y-42992000D01*
X123330000Y-42992000D02*
X123502000Y-42978000D01*
X123502000Y-42978000D02*
X123670000Y-42938000D01*
X123670000Y-42938000D02*
X123830000Y-42872000D01*
X123830000Y-42872000D02*
X123978000Y-42781000D01*
X123978000Y-42781000D02*
X124109000Y-42669000D01*
X124109000Y-42669000D02*
X124221000Y-42538000D01*
X124221000Y-42538000D02*
X124312000Y-42390000D01*
X124312000Y-42390000D02*
X124378000Y-42230000D01*
X124378000Y-42230000D02*
X124418000Y-42062000D01*
X124418000Y-42062000D02*
X124432000Y-41890000D01*
X124432000Y-41890000D02*
X124432000Y-39390000D01*
X124432000Y-39390000D02*
X124418000Y-39218000D01*
X124418000Y-39218000D02*
X124378000Y-39050000D01*
X124378000Y-39050000D02*
X124312000Y-38890000D01*
X124312000Y-38890000D02*
X124221000Y-38742000D01*
X124221000Y-38742000D02*
X124109000Y-38611000D01*
X124109000Y-38611000D02*
X123978000Y-38499000D01*
X123978000Y-38499000D02*
X123830000Y-38408000D01*
X123830000Y-38408000D02*
X123670000Y-38342000D01*
X123670000Y-38342000D02*
X123502000Y-38302000D01*
X123502000Y-38302000D02*
X123330000Y-38288000D01*
X123330000Y-38288000D02*
X123158000Y-38302000D01*
X123158000Y-38302000D02*
X122990000Y-38342000D01*
X122990000Y-38342000D02*
X122830000Y-38408000D01*
X122830000Y-38408000D02*
X122682000Y-38499000D01*
X122682000Y-38499000D02*
X122551000Y-38611000D01*
X122551000Y-38611000D02*
X122439000Y-38742000D01*
X122439000Y-38742000D02*
X122348000Y-38890000D01*
X122348000Y-38890000D02*
X122282000Y-39050000D01*
X122282000Y-39050000D02*
X122242000Y-39218000D01*
X122242000Y-39218000D02*
X122228000Y-39390000D01*
X122228000Y-39390000D02*
X122228000Y-41890000D01*
G36*
X123502000Y-38302000D02*
G01*
X123670000Y-38342000D01*
X123830000Y-38408000D01*
X123978000Y-38499000D01*
X124109000Y-38611000D01*
X124221000Y-38742000D01*
X124312000Y-38890000D01*
X124378000Y-39050000D01*
X124418000Y-39218000D01*
X124432000Y-39390000D01*
X124432000Y-41890000D01*
X124418000Y-42062000D01*
X124378000Y-42230000D01*
X124312000Y-42390000D01*
X124221000Y-42538000D01*
X124109000Y-42669000D01*
X123978000Y-42781000D01*
X123830000Y-42872000D01*
X123670000Y-42938000D01*
X123502000Y-42978000D01*
X123330000Y-42992000D01*
X123158000Y-42978000D01*
X122990000Y-42938000D01*
X122830000Y-42872000D01*
X122682000Y-42781000D01*
X122551000Y-42669000D01*
X122439000Y-42538000D01*
X122348000Y-42390000D01*
X122282000Y-42230000D01*
X122242000Y-42062000D01*
X122228000Y-41890000D01*
X122228000Y-39390000D01*
X122242000Y-39218000D01*
X122282000Y-39050000D01*
X122348000Y-38890000D01*
X122439000Y-38742000D01*
X122551000Y-38611000D01*
X122682000Y-38499000D01*
X122830000Y-38408000D01*
X122990000Y-38342000D01*
X123158000Y-38302000D01*
X123330000Y-38288000D01*
X123502000Y-38302000D01*
G37*
X123502000Y-38302000D02*
X123670000Y-38342000D01*
X123830000Y-38408000D01*
X123978000Y-38499000D01*
X124109000Y-38611000D01*
X124221000Y-38742000D01*
X124312000Y-38890000D01*
X124378000Y-39050000D01*
X124418000Y-39218000D01*
X124432000Y-39390000D01*
X124432000Y-41890000D01*
X124418000Y-42062000D01*
X124378000Y-42230000D01*
X124312000Y-42390000D01*
X124221000Y-42538000D01*
X124109000Y-42669000D01*
X123978000Y-42781000D01*
X123830000Y-42872000D01*
X123670000Y-42938000D01*
X123502000Y-42978000D01*
X123330000Y-42992000D01*
X123158000Y-42978000D01*
X122990000Y-42938000D01*
X122830000Y-42872000D01*
X122682000Y-42781000D01*
X122551000Y-42669000D01*
X122439000Y-42538000D01*
X122348000Y-42390000D01*
X122282000Y-42230000D01*
X122242000Y-42062000D01*
X122228000Y-41890000D01*
X122228000Y-39390000D01*
X122242000Y-39218000D01*
X122282000Y-39050000D01*
X122348000Y-38890000D01*
X122439000Y-38742000D01*
X122551000Y-38611000D01*
X122682000Y-38499000D01*
X122830000Y-38408000D01*
X122990000Y-38342000D01*
X123158000Y-38302000D01*
X123330000Y-38288000D01*
X123502000Y-38302000D01*
X122228000Y-56890000D02*
X122242000Y-57062000D01*
X122242000Y-57062000D02*
X122282000Y-57230000D01*
X122282000Y-57230000D02*
X122348000Y-57390000D01*
X122348000Y-57390000D02*
X122439000Y-57538000D01*
X122439000Y-57538000D02*
X122551000Y-57669000D01*
X122551000Y-57669000D02*
X122682000Y-57781000D01*
X122682000Y-57781000D02*
X122830000Y-57872000D01*
X122830000Y-57872000D02*
X122990000Y-57938000D01*
X122990000Y-57938000D02*
X123158000Y-57978000D01*
X123158000Y-57978000D02*
X123330000Y-57992000D01*
X123330000Y-57992000D02*
X123502000Y-57978000D01*
X123502000Y-57978000D02*
X123670000Y-57938000D01*
X123670000Y-57938000D02*
X123830000Y-57872000D01*
X123830000Y-57872000D02*
X123978000Y-57781000D01*
X123978000Y-57781000D02*
X124109000Y-57669000D01*
X124109000Y-57669000D02*
X124221000Y-57538000D01*
X124221000Y-57538000D02*
X124312000Y-57390000D01*
X124312000Y-57390000D02*
X124378000Y-57230000D01*
X124378000Y-57230000D02*
X124418000Y-57062000D01*
X124418000Y-57062000D02*
X124432000Y-56890000D01*
X124432000Y-56890000D02*
X124432000Y-54390000D01*
X124432000Y-54390000D02*
X124418000Y-54218000D01*
X124418000Y-54218000D02*
X124378000Y-54050000D01*
X124378000Y-54050000D02*
X124312000Y-53890000D01*
X124312000Y-53890000D02*
X124221000Y-53742000D01*
X124221000Y-53742000D02*
X124109000Y-53611000D01*
X124109000Y-53611000D02*
X123978000Y-53499000D01*
X123978000Y-53499000D02*
X123830000Y-53408000D01*
X123830000Y-53408000D02*
X123670000Y-53342000D01*
X123670000Y-53342000D02*
X123502000Y-53302000D01*
X123502000Y-53302000D02*
X123330000Y-53288000D01*
X123330000Y-53288000D02*
X123158000Y-53302000D01*
X123158000Y-53302000D02*
X122990000Y-53342000D01*
X122990000Y-53342000D02*
X122830000Y-53408000D01*
X122830000Y-53408000D02*
X122682000Y-53499000D01*
X122682000Y-53499000D02*
X122551000Y-53611000D01*
X122551000Y-53611000D02*
X122439000Y-53742000D01*
X122439000Y-53742000D02*
X122348000Y-53890000D01*
X122348000Y-53890000D02*
X122282000Y-54050000D01*
X122282000Y-54050000D02*
X122242000Y-54218000D01*
X122242000Y-54218000D02*
X122228000Y-54390000D01*
X122228000Y-54390000D02*
X122228000Y-56890000D01*
G36*
X123502000Y-53302000D02*
G01*
X123670000Y-53342000D01*
X123830000Y-53408000D01*
X123978000Y-53499000D01*
X124109000Y-53611000D01*
X124221000Y-53742000D01*
X124312000Y-53890000D01*
X124378000Y-54050000D01*
X124418000Y-54218000D01*
X124432000Y-54390000D01*
X124432000Y-56890000D01*
X124418000Y-57062000D01*
X124378000Y-57230000D01*
X124312000Y-57390000D01*
X124221000Y-57538000D01*
X124109000Y-57669000D01*
X123978000Y-57781000D01*
X123830000Y-57872000D01*
X123670000Y-57938000D01*
X123502000Y-57978000D01*
X123330000Y-57992000D01*
X123158000Y-57978000D01*
X122990000Y-57938000D01*
X122830000Y-57872000D01*
X122682000Y-57781000D01*
X122551000Y-57669000D01*
X122439000Y-57538000D01*
X122348000Y-57390000D01*
X122282000Y-57230000D01*
X122242000Y-57062000D01*
X122228000Y-56890000D01*
X122228000Y-54390000D01*
X122242000Y-54218000D01*
X122282000Y-54050000D01*
X122348000Y-53890000D01*
X122439000Y-53742000D01*
X122551000Y-53611000D01*
X122682000Y-53499000D01*
X122830000Y-53408000D01*
X122990000Y-53342000D01*
X123158000Y-53302000D01*
X123330000Y-53288000D01*
X123502000Y-53302000D01*
G37*
X123502000Y-53302000D02*
X123670000Y-53342000D01*
X123830000Y-53408000D01*
X123978000Y-53499000D01*
X124109000Y-53611000D01*
X124221000Y-53742000D01*
X124312000Y-53890000D01*
X124378000Y-54050000D01*
X124418000Y-54218000D01*
X124432000Y-54390000D01*
X124432000Y-56890000D01*
X124418000Y-57062000D01*
X124378000Y-57230000D01*
X124312000Y-57390000D01*
X124221000Y-57538000D01*
X124109000Y-57669000D01*
X123978000Y-57781000D01*
X123830000Y-57872000D01*
X123670000Y-57938000D01*
X123502000Y-57978000D01*
X123330000Y-57992000D01*
X123158000Y-57978000D01*
X122990000Y-57938000D01*
X122830000Y-57872000D01*
X122682000Y-57781000D01*
X122551000Y-57669000D01*
X122439000Y-57538000D01*
X122348000Y-57390000D01*
X122282000Y-57230000D01*
X122242000Y-57062000D01*
X122228000Y-56890000D01*
X122228000Y-54390000D01*
X122242000Y-54218000D01*
X122282000Y-54050000D01*
X122348000Y-53890000D01*
X122439000Y-53742000D01*
X122551000Y-53611000D01*
X122682000Y-53499000D01*
X122830000Y-53408000D01*
X122990000Y-53342000D01*
X123158000Y-53302000D01*
X123330000Y-53288000D01*
X123502000Y-53302000D01*
X125780000Y-58438000D02*
X125631000Y-58450000D01*
X125631000Y-58450000D02*
X125486000Y-58485000D01*
X125486000Y-58485000D02*
X125348000Y-58542000D01*
X125348000Y-58542000D02*
X125221000Y-58620000D01*
X125221000Y-58620000D02*
X125107000Y-58717000D01*
X125107000Y-58717000D02*
X125010000Y-58831000D01*
X125010000Y-58831000D02*
X124932000Y-58958000D01*
X124932000Y-58958000D02*
X124875000Y-59096000D01*
X124875000Y-59096000D02*
X124840000Y-59241000D01*
X124840000Y-59241000D02*
X124828000Y-59390000D01*
X124828000Y-59390000D02*
X124840000Y-59539000D01*
X124840000Y-59539000D02*
X124875000Y-59684000D01*
X124875000Y-59684000D02*
X124932000Y-59822000D01*
X124932000Y-59822000D02*
X125010000Y-59949000D01*
X125010000Y-59949000D02*
X125107000Y-60063000D01*
X125107000Y-60063000D02*
X125221000Y-60160000D01*
X125221000Y-60160000D02*
X125348000Y-60238000D01*
X125348000Y-60238000D02*
X125486000Y-60295000D01*
X125486000Y-60295000D02*
X125631000Y-60330000D01*
X125631000Y-60330000D02*
X125780000Y-60342000D01*
X125780000Y-60342000D02*
X128280000Y-60342000D01*
X128280000Y-60342000D02*
X128429000Y-60330000D01*
X128429000Y-60330000D02*
X128574000Y-60295000D01*
X128574000Y-60295000D02*
X128712000Y-60238000D01*
X128712000Y-60238000D02*
X128839000Y-60160000D01*
X128839000Y-60160000D02*
X128953000Y-60063000D01*
X128953000Y-60063000D02*
X129050000Y-59949000D01*
X129050000Y-59949000D02*
X129128000Y-59822000D01*
X129128000Y-59822000D02*
X129185000Y-59684000D01*
X129185000Y-59684000D02*
X129220000Y-59539000D01*
X129220000Y-59539000D02*
X129232000Y-59390000D01*
X129232000Y-59390000D02*
X129220000Y-59241000D01*
X129220000Y-59241000D02*
X129185000Y-59096000D01*
X129185000Y-59096000D02*
X129128000Y-58958000D01*
X129128000Y-58958000D02*
X129050000Y-58831000D01*
X129050000Y-58831000D02*
X128953000Y-58717000D01*
X128953000Y-58717000D02*
X128839000Y-58620000D01*
X128839000Y-58620000D02*
X128712000Y-58542000D01*
X128712000Y-58542000D02*
X128574000Y-58485000D01*
X128574000Y-58485000D02*
X128429000Y-58450000D01*
X128429000Y-58450000D02*
X128280000Y-58438000D01*
X128280000Y-58438000D02*
X125780000Y-58438000D01*
G36*
X128429000Y-58450000D02*
G01*
X128574000Y-58485000D01*
X128712000Y-58542000D01*
X128839000Y-58620000D01*
X128953000Y-58717000D01*
X129050000Y-58831000D01*
X129128000Y-58958000D01*
X129185000Y-59096000D01*
X129220000Y-59241000D01*
X129232000Y-59390000D01*
X129220000Y-59539000D01*
X129185000Y-59684000D01*
X129128000Y-59822000D01*
X129050000Y-59949000D01*
X128953000Y-60063000D01*
X128839000Y-60160000D01*
X128712000Y-60238000D01*
X128574000Y-60295000D01*
X128429000Y-60330000D01*
X128280000Y-60342000D01*
X125780000Y-60342000D01*
X125631000Y-60330000D01*
X125486000Y-60295000D01*
X125348000Y-60238000D01*
X125221000Y-60160000D01*
X125107000Y-60063000D01*
X125010000Y-59949000D01*
X124932000Y-59822000D01*
X124875000Y-59684000D01*
X124840000Y-59539000D01*
X124828000Y-59390000D01*
X124840000Y-59241000D01*
X124875000Y-59096000D01*
X124932000Y-58958000D01*
X125010000Y-58831000D01*
X125107000Y-58717000D01*
X125221000Y-58620000D01*
X125348000Y-58542000D01*
X125486000Y-58485000D01*
X125631000Y-58450000D01*
X125780000Y-58438000D01*
X128280000Y-58438000D01*
X128429000Y-58450000D01*
G37*
X128429000Y-58450000D02*
X128574000Y-58485000D01*
X128712000Y-58542000D01*
X128839000Y-58620000D01*
X128953000Y-58717000D01*
X129050000Y-58831000D01*
X129128000Y-58958000D01*
X129185000Y-59096000D01*
X129220000Y-59241000D01*
X129232000Y-59390000D01*
X129220000Y-59539000D01*
X129185000Y-59684000D01*
X129128000Y-59822000D01*
X129050000Y-59949000D01*
X128953000Y-60063000D01*
X128839000Y-60160000D01*
X128712000Y-60238000D01*
X128574000Y-60295000D01*
X128429000Y-60330000D01*
X128280000Y-60342000D01*
X125780000Y-60342000D01*
X125631000Y-60330000D01*
X125486000Y-60295000D01*
X125348000Y-60238000D01*
X125221000Y-60160000D01*
X125107000Y-60063000D01*
X125010000Y-59949000D01*
X124932000Y-59822000D01*
X124875000Y-59684000D01*
X124840000Y-59539000D01*
X124828000Y-59390000D01*
X124840000Y-59241000D01*
X124875000Y-59096000D01*
X124932000Y-58958000D01*
X125010000Y-58831000D01*
X125107000Y-58717000D01*
X125221000Y-58620000D01*
X125348000Y-58542000D01*
X125486000Y-58485000D01*
X125631000Y-58450000D01*
X125780000Y-58438000D01*
X128280000Y-58438000D01*
X128429000Y-58450000D01*
X125780000Y-35938000D02*
X125631000Y-35950000D01*
X125631000Y-35950000D02*
X125486000Y-35985000D01*
X125486000Y-35985000D02*
X125348000Y-36042000D01*
X125348000Y-36042000D02*
X125221000Y-36120000D01*
X125221000Y-36120000D02*
X125107000Y-36217000D01*
X125107000Y-36217000D02*
X125010000Y-36331000D01*
X125010000Y-36331000D02*
X124932000Y-36458000D01*
X124932000Y-36458000D02*
X124875000Y-36596000D01*
X124875000Y-36596000D02*
X124840000Y-36741000D01*
X124840000Y-36741000D02*
X124828000Y-36890000D01*
X124828000Y-36890000D02*
X124840000Y-37039000D01*
X124840000Y-37039000D02*
X124875000Y-37184000D01*
X124875000Y-37184000D02*
X124932000Y-37322000D01*
X124932000Y-37322000D02*
X125010000Y-37449000D01*
X125010000Y-37449000D02*
X125107000Y-37563000D01*
X125107000Y-37563000D02*
X125221000Y-37660000D01*
X125221000Y-37660000D02*
X125348000Y-37738000D01*
X125348000Y-37738000D02*
X125486000Y-37795000D01*
X125486000Y-37795000D02*
X125631000Y-37830000D01*
X125631000Y-37830000D02*
X125780000Y-37842000D01*
X125780000Y-37842000D02*
X128280000Y-37842000D01*
X128280000Y-37842000D02*
X128429000Y-37830000D01*
X128429000Y-37830000D02*
X128574000Y-37795000D01*
X128574000Y-37795000D02*
X128712000Y-37738000D01*
X128712000Y-37738000D02*
X128839000Y-37660000D01*
X128839000Y-37660000D02*
X128953000Y-37563000D01*
X128953000Y-37563000D02*
X129050000Y-37449000D01*
X129050000Y-37449000D02*
X129128000Y-37322000D01*
X129128000Y-37322000D02*
X129185000Y-37184000D01*
X129185000Y-37184000D02*
X129220000Y-37039000D01*
X129220000Y-37039000D02*
X129232000Y-36890000D01*
X129232000Y-36890000D02*
X129220000Y-36741000D01*
X129220000Y-36741000D02*
X129185000Y-36596000D01*
X129185000Y-36596000D02*
X129128000Y-36458000D01*
X129128000Y-36458000D02*
X129050000Y-36331000D01*
X129050000Y-36331000D02*
X128953000Y-36217000D01*
X128953000Y-36217000D02*
X128839000Y-36120000D01*
X128839000Y-36120000D02*
X128712000Y-36042000D01*
X128712000Y-36042000D02*
X128574000Y-35985000D01*
X128574000Y-35985000D02*
X128429000Y-35950000D01*
X128429000Y-35950000D02*
X128280000Y-35938000D01*
X128280000Y-35938000D02*
X125780000Y-35938000D01*
G36*
X128429000Y-35950000D02*
G01*
X128574000Y-35985000D01*
X128712000Y-36042000D01*
X128839000Y-36120000D01*
X128953000Y-36217000D01*
X129050000Y-36331000D01*
X129128000Y-36458000D01*
X129185000Y-36596000D01*
X129220000Y-36741000D01*
X129232000Y-36890000D01*
X129220000Y-37039000D01*
X129185000Y-37184000D01*
X129128000Y-37322000D01*
X129050000Y-37449000D01*
X128953000Y-37563000D01*
X128839000Y-37660000D01*
X128712000Y-37738000D01*
X128574000Y-37795000D01*
X128429000Y-37830000D01*
X128280000Y-37842000D01*
X125780000Y-37842000D01*
X125631000Y-37830000D01*
X125486000Y-37795000D01*
X125348000Y-37738000D01*
X125221000Y-37660000D01*
X125107000Y-37563000D01*
X125010000Y-37449000D01*
X124932000Y-37322000D01*
X124875000Y-37184000D01*
X124840000Y-37039000D01*
X124828000Y-36890000D01*
X124840000Y-36741000D01*
X124875000Y-36596000D01*
X124932000Y-36458000D01*
X125010000Y-36331000D01*
X125107000Y-36217000D01*
X125221000Y-36120000D01*
X125348000Y-36042000D01*
X125486000Y-35985000D01*
X125631000Y-35950000D01*
X125780000Y-35938000D01*
X128280000Y-35938000D01*
X128429000Y-35950000D01*
G37*
X128429000Y-35950000D02*
X128574000Y-35985000D01*
X128712000Y-36042000D01*
X128839000Y-36120000D01*
X128953000Y-36217000D01*
X129050000Y-36331000D01*
X129128000Y-36458000D01*
X129185000Y-36596000D01*
X129220000Y-36741000D01*
X129232000Y-36890000D01*
X129220000Y-37039000D01*
X129185000Y-37184000D01*
X129128000Y-37322000D01*
X129050000Y-37449000D01*
X128953000Y-37563000D01*
X128839000Y-37660000D01*
X128712000Y-37738000D01*
X128574000Y-37795000D01*
X128429000Y-37830000D01*
X128280000Y-37842000D01*
X125780000Y-37842000D01*
X125631000Y-37830000D01*
X125486000Y-37795000D01*
X125348000Y-37738000D01*
X125221000Y-37660000D01*
X125107000Y-37563000D01*
X125010000Y-37449000D01*
X124932000Y-37322000D01*
X124875000Y-37184000D01*
X124840000Y-37039000D01*
X124828000Y-36890000D01*
X124840000Y-36741000D01*
X124875000Y-36596000D01*
X124932000Y-36458000D01*
X125010000Y-36331000D01*
X125107000Y-36217000D01*
X125221000Y-36120000D01*
X125348000Y-36042000D01*
X125486000Y-35985000D01*
X125631000Y-35950000D01*
X125780000Y-35938000D01*
X128280000Y-35938000D01*
X128429000Y-35950000D01*
X125780000Y-50938000D02*
X125631000Y-50950000D01*
X125631000Y-50950000D02*
X125486000Y-50985000D01*
X125486000Y-50985000D02*
X125348000Y-51042000D01*
X125348000Y-51042000D02*
X125221000Y-51120000D01*
X125221000Y-51120000D02*
X125107000Y-51217000D01*
X125107000Y-51217000D02*
X125010000Y-51331000D01*
X125010000Y-51331000D02*
X124932000Y-51458000D01*
X124932000Y-51458000D02*
X124875000Y-51596000D01*
X124875000Y-51596000D02*
X124840000Y-51741000D01*
X124840000Y-51741000D02*
X124828000Y-51890000D01*
X124828000Y-51890000D02*
X124840000Y-52039000D01*
X124840000Y-52039000D02*
X124875000Y-52184000D01*
X124875000Y-52184000D02*
X124932000Y-52322000D01*
X124932000Y-52322000D02*
X125010000Y-52449000D01*
X125010000Y-52449000D02*
X125107000Y-52563000D01*
X125107000Y-52563000D02*
X125221000Y-52660000D01*
X125221000Y-52660000D02*
X125348000Y-52738000D01*
X125348000Y-52738000D02*
X125486000Y-52795000D01*
X125486000Y-52795000D02*
X125631000Y-52830000D01*
X125631000Y-52830000D02*
X125780000Y-52842000D01*
X125780000Y-52842000D02*
X128280000Y-52842000D01*
X128280000Y-52842000D02*
X128429000Y-52830000D01*
X128429000Y-52830000D02*
X128574000Y-52795000D01*
X128574000Y-52795000D02*
X128712000Y-52738000D01*
X128712000Y-52738000D02*
X128839000Y-52660000D01*
X128839000Y-52660000D02*
X128953000Y-52563000D01*
X128953000Y-52563000D02*
X129050000Y-52449000D01*
X129050000Y-52449000D02*
X129128000Y-52322000D01*
X129128000Y-52322000D02*
X129185000Y-52184000D01*
X129185000Y-52184000D02*
X129220000Y-52039000D01*
X129220000Y-52039000D02*
X129232000Y-51890000D01*
X129232000Y-51890000D02*
X129220000Y-51741000D01*
X129220000Y-51741000D02*
X129185000Y-51596000D01*
X129185000Y-51596000D02*
X129128000Y-51458000D01*
X129128000Y-51458000D02*
X129050000Y-51331000D01*
X129050000Y-51331000D02*
X128953000Y-51217000D01*
X128953000Y-51217000D02*
X128839000Y-51120000D01*
X128839000Y-51120000D02*
X128712000Y-51042000D01*
X128712000Y-51042000D02*
X128574000Y-50985000D01*
X128574000Y-50985000D02*
X128429000Y-50950000D01*
X128429000Y-50950000D02*
X128280000Y-50938000D01*
X128280000Y-50938000D02*
X125780000Y-50938000D01*
G36*
X128429000Y-50950000D02*
G01*
X128574000Y-50985000D01*
X128712000Y-51042000D01*
X128839000Y-51120000D01*
X128953000Y-51217000D01*
X129050000Y-51331000D01*
X129128000Y-51458000D01*
X129185000Y-51596000D01*
X129220000Y-51741000D01*
X129232000Y-51890000D01*
X129220000Y-52039000D01*
X129185000Y-52184000D01*
X129128000Y-52322000D01*
X129050000Y-52449000D01*
X128953000Y-52563000D01*
X128839000Y-52660000D01*
X128712000Y-52738000D01*
X128574000Y-52795000D01*
X128429000Y-52830000D01*
X128280000Y-52842000D01*
X125780000Y-52842000D01*
X125631000Y-52830000D01*
X125486000Y-52795000D01*
X125348000Y-52738000D01*
X125221000Y-52660000D01*
X125107000Y-52563000D01*
X125010000Y-52449000D01*
X124932000Y-52322000D01*
X124875000Y-52184000D01*
X124840000Y-52039000D01*
X124828000Y-51890000D01*
X124840000Y-51741000D01*
X124875000Y-51596000D01*
X124932000Y-51458000D01*
X125010000Y-51331000D01*
X125107000Y-51217000D01*
X125221000Y-51120000D01*
X125348000Y-51042000D01*
X125486000Y-50985000D01*
X125631000Y-50950000D01*
X125780000Y-50938000D01*
X128280000Y-50938000D01*
X128429000Y-50950000D01*
G37*
X128429000Y-50950000D02*
X128574000Y-50985000D01*
X128712000Y-51042000D01*
X128839000Y-51120000D01*
X128953000Y-51217000D01*
X129050000Y-51331000D01*
X129128000Y-51458000D01*
X129185000Y-51596000D01*
X129220000Y-51741000D01*
X129232000Y-51890000D01*
X129220000Y-52039000D01*
X129185000Y-52184000D01*
X129128000Y-52322000D01*
X129050000Y-52449000D01*
X128953000Y-52563000D01*
X128839000Y-52660000D01*
X128712000Y-52738000D01*
X128574000Y-52795000D01*
X128429000Y-52830000D01*
X128280000Y-52842000D01*
X125780000Y-52842000D01*
X125631000Y-52830000D01*
X125486000Y-52795000D01*
X125348000Y-52738000D01*
X125221000Y-52660000D01*
X125107000Y-52563000D01*
X125010000Y-52449000D01*
X124932000Y-52322000D01*
X124875000Y-52184000D01*
X124840000Y-52039000D01*
X124828000Y-51890000D01*
X124840000Y-51741000D01*
X124875000Y-51596000D01*
X124932000Y-51458000D01*
X125010000Y-51331000D01*
X125107000Y-51217000D01*
X125221000Y-51120000D01*
X125348000Y-51042000D01*
X125486000Y-50985000D01*
X125631000Y-50950000D01*
X125780000Y-50938000D01*
X128280000Y-50938000D01*
X128429000Y-50950000D01*
X125780000Y-28438000D02*
X125631000Y-28450000D01*
X125631000Y-28450000D02*
X125486000Y-28485000D01*
X125486000Y-28485000D02*
X125348000Y-28542000D01*
X125348000Y-28542000D02*
X125221000Y-28620000D01*
X125221000Y-28620000D02*
X125107000Y-28717000D01*
X125107000Y-28717000D02*
X125010000Y-28831000D01*
X125010000Y-28831000D02*
X124932000Y-28958000D01*
X124932000Y-28958000D02*
X124875000Y-29096000D01*
X124875000Y-29096000D02*
X124840000Y-29241000D01*
X124840000Y-29241000D02*
X124828000Y-29390000D01*
X124828000Y-29390000D02*
X124840000Y-29539000D01*
X124840000Y-29539000D02*
X124875000Y-29684000D01*
X124875000Y-29684000D02*
X124932000Y-29822000D01*
X124932000Y-29822000D02*
X125010000Y-29949000D01*
X125010000Y-29949000D02*
X125107000Y-30063000D01*
X125107000Y-30063000D02*
X125221000Y-30160000D01*
X125221000Y-30160000D02*
X125348000Y-30238000D01*
X125348000Y-30238000D02*
X125486000Y-30295000D01*
X125486000Y-30295000D02*
X125631000Y-30330000D01*
X125631000Y-30330000D02*
X125780000Y-30342000D01*
X125780000Y-30342000D02*
X128280000Y-30342000D01*
X128280000Y-30342000D02*
X128429000Y-30330000D01*
X128429000Y-30330000D02*
X128574000Y-30295000D01*
X128574000Y-30295000D02*
X128712000Y-30238000D01*
X128712000Y-30238000D02*
X128839000Y-30160000D01*
X128839000Y-30160000D02*
X128953000Y-30063000D01*
X128953000Y-30063000D02*
X129050000Y-29949000D01*
X129050000Y-29949000D02*
X129128000Y-29822000D01*
X129128000Y-29822000D02*
X129185000Y-29684000D01*
X129185000Y-29684000D02*
X129220000Y-29539000D01*
X129220000Y-29539000D02*
X129232000Y-29390000D01*
X129232000Y-29390000D02*
X129220000Y-29241000D01*
X129220000Y-29241000D02*
X129185000Y-29096000D01*
X129185000Y-29096000D02*
X129128000Y-28958000D01*
X129128000Y-28958000D02*
X129050000Y-28831000D01*
X129050000Y-28831000D02*
X128953000Y-28717000D01*
X128953000Y-28717000D02*
X128839000Y-28620000D01*
X128839000Y-28620000D02*
X128712000Y-28542000D01*
X128712000Y-28542000D02*
X128574000Y-28485000D01*
X128574000Y-28485000D02*
X128429000Y-28450000D01*
X128429000Y-28450000D02*
X128280000Y-28438000D01*
X128280000Y-28438000D02*
X125780000Y-28438000D01*
G36*
X128429000Y-28450000D02*
G01*
X128574000Y-28485000D01*
X128712000Y-28542000D01*
X128839000Y-28620000D01*
X128953000Y-28717000D01*
X129050000Y-28831000D01*
X129128000Y-28958000D01*
X129185000Y-29096000D01*
X129220000Y-29241000D01*
X129232000Y-29390000D01*
X129220000Y-29539000D01*
X129185000Y-29684000D01*
X129128000Y-29822000D01*
X129050000Y-29949000D01*
X128953000Y-30063000D01*
X128839000Y-30160000D01*
X128712000Y-30238000D01*
X128574000Y-30295000D01*
X128429000Y-30330000D01*
X128280000Y-30342000D01*
X125780000Y-30342000D01*
X125631000Y-30330000D01*
X125486000Y-30295000D01*
X125348000Y-30238000D01*
X125221000Y-30160000D01*
X125107000Y-30063000D01*
X125010000Y-29949000D01*
X124932000Y-29822000D01*
X124875000Y-29684000D01*
X124840000Y-29539000D01*
X124828000Y-29390000D01*
X124840000Y-29241000D01*
X124875000Y-29096000D01*
X124932000Y-28958000D01*
X125010000Y-28831000D01*
X125107000Y-28717000D01*
X125221000Y-28620000D01*
X125348000Y-28542000D01*
X125486000Y-28485000D01*
X125631000Y-28450000D01*
X125780000Y-28438000D01*
X128280000Y-28438000D01*
X128429000Y-28450000D01*
G37*
X128429000Y-28450000D02*
X128574000Y-28485000D01*
X128712000Y-28542000D01*
X128839000Y-28620000D01*
X128953000Y-28717000D01*
X129050000Y-28831000D01*
X129128000Y-28958000D01*
X129185000Y-29096000D01*
X129220000Y-29241000D01*
X129232000Y-29390000D01*
X129220000Y-29539000D01*
X129185000Y-29684000D01*
X129128000Y-29822000D01*
X129050000Y-29949000D01*
X128953000Y-30063000D01*
X128839000Y-30160000D01*
X128712000Y-30238000D01*
X128574000Y-30295000D01*
X128429000Y-30330000D01*
X128280000Y-30342000D01*
X125780000Y-30342000D01*
X125631000Y-30330000D01*
X125486000Y-30295000D01*
X125348000Y-30238000D01*
X125221000Y-30160000D01*
X125107000Y-30063000D01*
X125010000Y-29949000D01*
X124932000Y-29822000D01*
X124875000Y-29684000D01*
X124840000Y-29539000D01*
X124828000Y-29390000D01*
X124840000Y-29241000D01*
X124875000Y-29096000D01*
X124932000Y-28958000D01*
X125010000Y-28831000D01*
X125107000Y-28717000D01*
X125221000Y-28620000D01*
X125348000Y-28542000D01*
X125486000Y-28485000D01*
X125631000Y-28450000D01*
X125780000Y-28438000D01*
X128280000Y-28438000D01*
X128429000Y-28450000D01*
%TD*%
D11*
%TO.C,J1*%
X119190000Y-69850000D03*
D12*
X128190000Y-69850000D03*
D13*
X122190000Y-69850000D03*
D14*
X121190000Y-65350000D03*
X121190000Y-74350000D03*
%TD*%
D11*
%TO.C,R12*%
X147320000Y-52070000D03*
D15*
X147320000Y-62230000D03*
%TD*%
D11*
%TO.C,R2*%
X143510000Y-29210000D03*
D15*
X143510000Y-19050000D03*
%TD*%
D11*
%TO.C,C1*%
X143510000Y-33020000D03*
X141010000Y-33020000D03*
%TD*%
%TO.C,C2*%
X160020000Y-33020000D03*
X162520000Y-33020000D03*
%TD*%
%TO.C,C3*%
X147320000Y-33020000D03*
X149820000Y-33020000D03*
%TD*%
%TO.C,C4*%
X137160000Y-46990000D03*
X134660000Y-46990000D03*
%TD*%
%TO.C,C5*%
X156210000Y-33020000D03*
X153710000Y-33020000D03*
%TD*%
%TO.C,C6*%
X166370000Y-33020000D03*
X168870000Y-33020000D03*
%TD*%
D16*
%TO.C,Contrast*%
X142225000Y-69775000D03*
X139685000Y-67235000D03*
X137145000Y-69775000D03*
%TD*%
D17*
%TO.C,D1*%
X153670000Y-46990000D03*
D18*
X161290000Y-46990000D03*
%TD*%
D17*
%TO.C,D2*%
X142240000Y-46920000D03*
D18*
X149860000Y-46920000D03*
%TD*%
D19*
%TO.C,Q1*%
X140970000Y-36830000D03*
D20*
X140970000Y-39370000D03*
X140970000Y-41910000D03*
%TD*%
D19*
%TO.C,Q2*%
X135890000Y-36830000D03*
D20*
X135890000Y-39370000D03*
X135890000Y-41910000D03*
%TD*%
D19*
%TO.C,Q3*%
X151130000Y-36830000D03*
D20*
X151130000Y-39370000D03*
X151130000Y-41910000D03*
%TD*%
D19*
%TO.C,Q4*%
X156210000Y-36830000D03*
D20*
X156210000Y-39370000D03*
X156210000Y-41910000D03*
%TD*%
D19*
%TO.C,Q5*%
X161290000Y-36830000D03*
D20*
X161290000Y-39370000D03*
X161290000Y-41910000D03*
%TD*%
D19*
%TO.C,Q6*%
X146050000Y-36830000D03*
D20*
X146050000Y-39370000D03*
X146050000Y-41910000D03*
%TD*%
D11*
%TO.C,R1*%
X158750000Y-52070000D03*
D15*
X158750000Y-62230000D03*
%TD*%
D11*
%TO.C,R3*%
X139700000Y-62230000D03*
D15*
X139700000Y-52070000D03*
%TD*%
D11*
%TO.C,R4*%
X135890000Y-52070000D03*
D15*
X135890000Y-62230000D03*
%TD*%
D11*
%TO.C,R5*%
X139700000Y-29210000D03*
D15*
X139700000Y-19050000D03*
%TD*%
D11*
%TO.C,R6*%
X135890000Y-29210000D03*
D15*
X135890000Y-19050000D03*
%TD*%
D11*
%TO.C,R7*%
X154940000Y-62230000D03*
D15*
X154940000Y-52070000D03*
%TD*%
D11*
%TO.C,R9*%
X162560000Y-52070000D03*
D15*
X162560000Y-62230000D03*
%TD*%
D11*
%TO.C,R10*%
X170180000Y-52070000D03*
D15*
X170180000Y-62230000D03*
%TD*%
D11*
%TO.C,R11*%
X166370000Y-52070000D03*
D15*
X166370000Y-62230000D03*
%TD*%
D11*
%TO.C,R13*%
X143256000Y-62230000D03*
D15*
X143256000Y-52070000D03*
%TD*%
D11*
%TO.C,R14*%
X132080000Y-19152061D03*
D15*
X132080000Y-29312061D03*
%TD*%
D11*
%TO.C,R15*%
X151130000Y-52070000D03*
D15*
X151130000Y-62230000D03*
%TD*%
D16*
%TO.C,Brightness*%
X151115000Y-69775000D03*
X148575000Y-67235000D03*
X146035000Y-69775000D03*
%TD*%
D21*
%TO.C,U1*%
X157480000Y-67310000D03*
D15*
X157480000Y-69850000D03*
X157480000Y-72390000D03*
X157480000Y-74930000D03*
X165100000Y-74930000D03*
X165100000Y-72390000D03*
X165100000Y-69850000D03*
X165100000Y-67310000D03*
%TD*%
D21*
%TO.C,U2*%
X150124000Y-20330000D03*
D15*
X150124000Y-22870000D03*
X150124000Y-25410000D03*
X150124000Y-27950000D03*
X157744000Y-27950000D03*
X157744000Y-25410000D03*
X157744000Y-22870000D03*
X157744000Y-20330000D03*
%TD*%
D22*
%TO.C,J2*%
X167704000Y-24130000D03*
D23*
X163204000Y-24130000D03*
%TD*%
D11*
%TO.C,R8*%
X132080000Y-52070000D03*
D15*
X132080000Y-62230000D03*
%TD*%
M02*
